<svg width="249" height="110" viewBox="0 0 249 110" fill="none" xmlns="http://www.w3.org/2000/svg">
<rect width="249" height="110" fill="white"/>
<path d="M69.328 74.656C69.648 74.592 69.968 74.56 70.288 74.56C70.608 74.496 70.928 74.432 71.248 74.368C72.912 74.112 73.776 73.152 73.84 71.488C73.968 69.76 74.064 67.744 74.128 65.44C74.192 63.072 74.224 60.576 74.224 57.952H69.328V74.656ZM74.128 42.784C74 39.328 73.84 36.256 73.648 33.568C73.52 30.88 73.392 28.992 73.264 27.904C73.2 27.008 73.232 26.112 73.36 25.216C73.552 24.32 73.84 23.52 74.224 22.816C74.672 22.112 75.216 21.536 75.856 21.088C76.56 20.576 77.36 20.288 78.256 20.224C80.176 20.096 81.808 20.512 83.152 21.472C84.56 22.432 85.424 23.84 85.744 25.696C85.872 26.912 86 28.832 86.128 31.456C86.256 34.08 86.352 37.088 86.416 40.48C86.48 43.872 86.512 47.456 86.512 51.232C86.576 55.008 86.576 58.624 86.512 62.08C86.448 65.472 86.352 68.544 86.224 71.296C86.096 74.048 85.904 76.128 85.648 77.536C85.264 79.712 84.592 81.504 83.632 82.912C82.672 84.256 81.552 85.376 80.272 86.272C78.48 87.36 76.144 88.288 73.264 89.056C70.448 89.888 67.12 90.304 63.28 90.304C59.44 90.304 56.112 89.888 53.296 89.056C50.48 88.288 48.208 87.36 46.48 86.272C45.136 85.376 43.984 84.224 43.024 82.816C42.064 81.408 41.392 79.648 41.008 77.536C40.752 76.128 40.56 74.048 40.432 71.296C40.304 68.544 40.208 65.472 40.144 62.08C40.08 58.624 40.048 55.008 40.048 51.232C40.112 47.456 40.176 43.872 40.24 40.48C40.304 37.088 40.4 34.08 40.528 31.456C40.656 28.832 40.784 26.912 40.912 25.696C41.232 23.84 42.064 22.4 43.408 21.376C44.752 20.288 46.224 19.904 47.824 20.224C49.936 20.608 51.408 21.504 52.24 22.912C53.136 24.32 53.52 25.952 53.392 27.808C53.2 28.896 53.04 30.784 52.912 33.472C52.784 36.16 52.656 39.264 52.528 42.784H57.04V26.944C57.04 25.28 57.552 23.872 58.576 22.72C59.6 21.568 61.04 20.992 62.896 20.992C64.624 20.992 66.128 21.504 67.408 22.528C68.688 23.488 69.328 24.96 69.328 26.944V42.784H74.128ZM52.336 57.952C52.336 60.64 52.368 63.2 52.432 65.632C52.56 68 52.688 70.048 52.816 71.776C52.88 72.544 53.072 73.152 53.392 73.6C53.776 73.984 54.416 74.24 55.312 74.368C55.568 74.432 55.824 74.464 56.08 74.464C56.4 74.464 56.72 74.496 57.04 74.56V57.952H52.336ZM105.04 61.792C105.04 64.864 105.008 67.84 104.944 70.72C104.88 73.6 104.784 76.288 104.656 78.784C104.592 81.28 104.496 83.52 104.368 85.504C104.304 87.424 104.208 88.96 104.08 90.112C103.824 92.032 102.992 93.664 101.584 95.008C100.176 96.352 98.448 96.928 96.4 96.736C94.096 96.544 92.432 95.616 91.408 93.952C90.384 92.352 89.904 90.592 89.968 88.672C90.16 86.24 90.32 83.296 90.448 79.84C90.64 76.32 90.768 72.576 90.832 68.608C90.96 64.576 91.024 60.448 91.024 56.224C91.024 51.936 90.992 47.808 90.928 43.84C90.864 39.808 90.736 36.032 90.544 32.512C90.416 28.992 90.224 26.016 89.968 23.584C89.712 21.536 90.16 19.712 91.312 18.112C92.528 16.512 94.128 15.584 96.112 15.328C97.136 15.2 98.096 15.296 98.992 15.616C99.952 15.872 100.784 16.32 101.488 16.96C102.192 17.536 102.768 18.24 103.216 19.072C103.664 19.904 103.952 20.832 104.08 21.856C104.4 24.352 104.624 27.808 104.752 32.224C104.944 36.64 105.072 41.44 105.136 46.624H109.456C109.392 41.952 109.296 37.568 109.168 33.472C109.04 29.376 108.816 25.92 108.496 23.104C108.24 21.056 108.688 19.232 109.84 17.632C111.056 16.032 112.656 15.104 114.64 14.848C115.664 14.72 116.624 14.816 117.52 15.136C118.48 15.392 119.312 15.84 120.016 16.48C120.72 17.056 121.296 17.76 121.744 18.592C122.192 19.424 122.48 20.352 122.608 21.376C122.928 23.552 123.152 26.528 123.28 30.304C123.472 34.08 123.568 38.24 123.568 42.784C123.632 47.328 123.632 52.032 123.568 56.896C123.568 61.76 123.504 66.4 123.376 70.816C123.312 75.232 123.216 79.2 123.088 82.72C122.96 86.176 122.8 88.8 122.608 90.592C122.352 92.512 121.52 94.144 120.112 95.488C118.704 96.832 116.976 97.408 114.928 97.216C112.624 97.024 110.96 96.096 109.936 94.432C108.912 92.832 108.432 91.072 108.496 89.152C108.752 86.016 108.944 82.048 109.072 77.248C109.264 72.384 109.392 67.232 109.456 61.792H105.04Z" fill="#FFA07A"/>
<path d="M164.937 43.264C164.617 43.776 164.137 44.352 163.497 44.992C162.921 45.568 162.217 46.08 161.385 46.528C160.553 46.912 159.625 47.168 158.601 47.296C157.577 47.36 156.489 47.168 155.337 46.72C153.737 46.016 152.553 45.184 151.785 44.224C151.081 43.264 150.633 42.272 150.441 41.248C150.249 40.224 150.249 39.264 150.441 38.368C150.697 37.408 150.985 36.672 151.305 36.16C151.817 35.392 152.265 34.592 152.649 33.76C153.097 32.928 153.481 32.128 153.801 31.36C153.929 30.848 153.929 30.368 153.801 29.92C153.737 29.408 153.033 29.152 151.689 29.152H143.625C142.601 29.152 141.705 28.928 140.937 28.48C140.169 28.032 139.529 27.456 139.017 26.752C138.505 26.048 138.121 25.28 137.865 24.448C137.609 23.616 137.481 22.784 137.481 21.952C137.481 20.992 137.641 20.096 137.961 19.264C138.345 18.368 138.825 17.632 139.401 17.056C139.977 16.416 140.617 15.936 141.321 15.616C142.089 15.232 142.857 15.04 143.625 15.04H162.633C163.337 15.04 164.105 15.232 164.937 15.616C165.833 15.936 166.665 16.448 167.433 17.152C168.201 17.856 168.841 18.72 169.353 19.744C169.929 20.768 170.249 21.952 170.313 23.296C170.313 27.136 169.833 30.72 168.873 34.048C167.977 37.312 166.665 40.384 164.937 43.264ZM205.161 41.92C205.033 42.56 204.713 43.232 204.201 43.936C203.753 44.576 203.145 45.184 202.377 45.76C201.609 46.272 200.713 46.656 199.689 46.912C198.665 47.104 197.481 47.104 196.137 46.912C194.793 46.72 193.673 46.304 192.777 45.664C191.945 45.024 191.273 44.32 190.761 43.552C190.249 42.784 189.897 42.016 189.705 41.248C189.577 40.416 189.577 39.68 189.705 39.04C189.833 38.464 189.929 37.824 189.993 37.12C190.121 36.416 190.217 35.712 190.281 35.008C190.409 34.304 190.505 33.632 190.569 32.992C190.697 32.352 190.793 31.808 190.857 31.36C190.921 30.848 190.857 30.368 190.665 29.92C190.537 29.408 189.929 29.152 188.841 29.152H178.857C177.769 29.152 176.841 28.928 176.073 28.48C175.305 28.032 174.665 27.456 174.153 26.752C173.641 26.048 173.257 25.28 173.001 24.448C172.809 23.616 172.713 22.784 172.713 21.952C172.713 19.968 173.321 18.336 174.537 17.056C175.753 15.712 177.193 15.04 178.857 15.04H199.017C199.721 15.04 200.457 15.232 201.225 15.616C202.057 16 202.825 16.544 203.529 17.248C204.297 17.888 204.937 18.688 205.449 19.648C206.025 20.608 206.377 21.696 206.505 22.912C206.889 26.624 206.889 30.112 206.505 33.376C206.121 36.576 205.673 39.424 205.161 41.92ZM139.593 62.368C138.697 62.24 137.801 61.984 136.905 61.6C136.073 61.216 135.305 60.704 134.601 60.064C133.961 59.424 133.449 58.624 133.065 57.664C132.745 56.704 132.649 55.552 132.777 54.208C132.905 53.056 133.257 52.064 133.833 51.232C134.409 50.4 135.113 49.76 135.945 49.312C136.841 48.8 137.769 48.48 138.729 48.352C139.689 48.16 140.585 48.096 141.417 48.16C144.809 48.48 149.001 48.736 153.993 48.928C159.049 49.12 164.361 49.248 169.929 49.312V41.152C169.929 39.552 170.665 38.144 172.137 36.928C173.609 35.648 175.433 35.008 177.609 35.008C179.785 35.008 181.737 35.584 183.465 36.736C185.193 37.824 186.057 39.296 186.057 41.152V49.216C189.897 49.152 193.481 49.056 196.809 48.928C200.201 48.736 203.113 48.48 205.545 48.16C206.441 48.096 207.369 48.128 208.329 48.256C209.353 48.384 210.281 48.704 211.113 49.216C211.945 49.664 212.649 50.336 213.225 51.232C213.801 52.064 214.121 53.152 214.185 54.496C214.249 55.712 214.089 56.8 213.705 57.76C213.321 58.656 212.777 59.424 212.073 60.064C211.433 60.704 210.697 61.216 209.865 61.6C209.033 61.984 208.201 62.24 207.369 62.368C205.449 62.624 202.761 62.848 199.305 63.04C195.849 63.168 191.977 63.296 187.689 63.424C183.401 63.488 178.889 63.552 174.153 63.616C169.417 63.616 164.841 63.584 160.425 63.52C156.073 63.456 152.041 63.328 148.329 63.136C144.681 62.944 141.769 62.688 139.593 62.368ZM192.009 82.048C192.009 81.92 191.913 81.696 191.721 81.376C191.593 81.056 191.177 80.896 190.473 80.896H156.393C155.881 80.896 155.529 81.024 155.337 81.28C155.209 81.472 155.113 81.696 155.049 81.952C154.985 82.208 154.921 82.56 154.857 83.008C154.857 83.456 154.889 83.904 154.953 84.352C155.081 85.184 155.401 85.632 155.913 85.696C156.937 85.888 158.153 86.08 159.561 86.272C160.969 86.464 162.473 86.624 164.073 86.752C165.673 86.88 167.305 86.976 168.969 87.04C170.697 87.104 172.361 87.136 173.961 87.136C177.161 87.136 180.201 87.072 183.081 86.944C185.961 86.752 188.457 86.432 190.569 85.984C191.529 85.792 192.009 85.216 192.009 84.256C192.073 83.552 192.073 82.816 192.009 82.048ZM199.305 98.08C195.593 99.296 191.401 100.064 186.729 100.384C182.121 100.768 177.609 100.992 173.193 101.056C170.953 101.056 168.617 100.992 166.185 100.864C163.753 100.736 161.353 100.544 158.985 100.288C156.681 100.096 154.505 99.808 152.457 99.424C150.409 99.04 148.681 98.56 147.273 97.984C145.865 97.408 144.393 96.416 142.857 95.008C141.321 93.664 140.329 91.936 139.881 89.824C139.625 88.608 139.433 87.328 139.305 85.984C139.241 84.576 139.209 83.2 139.209 81.856C139.273 80.448 139.337 79.104 139.401 77.824C139.529 76.544 139.657 75.424 139.785 74.464C140.105 72.544 140.937 70.88 142.281 69.472C143.689 68 145.321 67.264 147.177 67.264H199.881C201.929 67.264 203.593 68 204.873 69.472C206.217 70.88 207.017 72.544 207.273 74.464C207.593 77.216 207.753 79.744 207.753 82.048C207.817 84.352 207.625 86.944 207.177 89.824C207.049 90.784 206.697 91.712 206.121 92.608C205.609 93.504 204.969 94.304 204.201 95.008C203.497 95.776 202.697 96.416 201.801 96.928C200.969 97.44 200.137 97.824 199.305 98.08Z" fill="#FFA07A"/>
<path d="M66.6093 74.656C66.9293 74.592 67.2493 74.56 67.5693 74.56C67.8893 74.496 68.2093 74.432 68.5293 74.368C70.1933 74.112 71.0573 73.152 71.1213 71.488C71.2493 69.76 71.3453 67.744 71.4093 65.44C71.4733 63.072 71.5053 60.576 71.5053 57.952H66.6093V74.656ZM71.4093 42.784C71.2813 39.328 71.1213 36.256 70.9293 33.568C70.8013 30.88 70.6733 28.992 70.5453 27.904C70.4813 27.008 70.5133 26.112 70.6413 25.216C70.8333 24.32 71.1213 23.52 71.5053 22.816C71.9533 22.112 72.4973 21.536 73.1373 21.088C73.8413 20.576 74.6413 20.288 75.5373 20.224C77.4573 20.096 79.0893 20.512 80.4333 21.472C81.8413 22.432 82.7053 23.84 83.0253 25.696C83.1533 26.912 83.2813 28.832 83.4093 31.456C83.5373 34.08 83.6333 37.088 83.6973 40.48C83.7613 43.872 83.7933 47.456 83.7933 51.232C83.8573 55.008 83.8573 58.624 83.7933 62.08C83.7293 65.472 83.6333 68.544 83.5053 71.296C83.3773 74.048 83.1853 76.128 82.9293 77.536C82.5453 79.712 81.8733 81.504 80.9133 82.912C79.9533 84.256 78.8333 85.376 77.5533 86.272C75.7613 87.36 73.4253 88.288 70.5453 89.056C67.7293 89.888 64.4013 90.304 60.5613 90.304C56.7213 90.304 53.3933 89.888 50.5773 89.056C47.7613 88.288 45.4893 87.36 43.7613 86.272C42.4173 85.376 41.2653 84.224 40.3053 82.816C39.3453 81.408 38.6733 79.648 38.2893 77.536C38.0333 76.128 37.8413 74.048 37.7133 71.296C37.5853 68.544 37.4893 65.472 37.4253 62.08C37.3613 58.624 37.3293 55.008 37.3293 51.232C37.3933 47.456 37.4573 43.872 37.5213 40.48C37.5853 37.088 37.6813 34.08 37.8093 31.456C37.9373 28.832 38.0653 26.912 38.1933 25.696C38.5133 23.84 39.3453 22.4 40.6893 21.376C42.0333 20.288 43.5053 19.904 45.1053 20.224C47.2173 20.608 48.6893 21.504 49.5213 22.912C50.4173 24.32 50.8013 25.952 50.6733 27.808C50.4813 28.896 50.3213 30.784 50.1933 33.472C50.0653 36.16 49.9373 39.264 49.8093 42.784H54.3213V26.944C54.3213 25.28 54.8333 23.872 55.8573 22.72C56.8813 21.568 58.3213 20.992 60.1773 20.992C61.9053 20.992 63.4093 21.504 64.6893 22.528C65.9693 23.488 66.6093 24.96 66.6093 26.944V42.784H71.4093ZM49.6173 57.952C49.6173 60.64 49.6493 63.2 49.7133 65.632C49.8413 68 49.9693 70.048 50.0973 71.776C50.1613 72.544 50.3533 73.152 50.6733 73.6C51.0573 73.984 51.6973 74.24 52.5933 74.368C52.8493 74.432 53.1053 74.464 53.3613 74.464C53.6813 74.464 54.0013 74.496 54.3213 74.56V57.952H49.6173ZM102.321 61.792C102.321 64.864 102.289 67.84 102.225 70.72C102.161 73.6 102.065 76.288 101.937 78.784C101.873 81.28 101.777 83.52 101.649 85.504C101.585 87.424 101.489 88.96 101.361 90.112C101.105 92.032 100.273 93.664 98.8653 95.008C97.4573 96.352 95.7293 96.928 93.6813 96.736C91.3773 96.544 89.7133 95.616 88.6893 93.952C87.6653 92.352 87.1853 90.592 87.2493 88.672C87.4413 86.24 87.6013 83.296 87.7292 79.84C87.9213 76.32 88.0493 72.576 88.1133 68.608C88.2413 64.576 88.3053 60.448 88.3053 56.224C88.3053 51.936 88.2733 47.808 88.2093 43.84C88.1453 39.808 88.0173 36.032 87.8253 32.512C87.6973 28.992 87.5053 26.016 87.2493 23.584C86.9933 21.536 87.4413 19.712 88.5933 18.112C89.8093 16.512 91.4093 15.584 93.3933 15.328C94.4173 15.2 95.3773 15.296 96.2733 15.616C97.2333 15.872 98.0653 16.32 98.7693 16.96C99.4733 17.536 100.049 18.24 100.497 19.072C100.945 19.904 101.233 20.832 101.361 21.856C101.681 24.352 101.905 27.808 102.033 32.224C102.225 36.64 102.353 41.44 102.417 46.624H106.737C106.673 41.952 106.577 37.568 106.449 33.472C106.321 29.376 106.097 25.92 105.777 23.104C105.521 21.056 105.969 19.232 107.121 17.632C108.337 16.032 109.937 15.104 111.921 14.848C112.945 14.72 113.905 14.816 114.801 15.136C115.761 15.392 116.593 15.84 117.297 16.48C118.001 17.056 118.577 17.76 119.025 18.592C119.473 19.424 119.761 20.352 119.889 21.376C120.209 23.552 120.433 26.528 120.561 30.304C120.753 34.08 120.849 38.24 120.849 42.784C120.913 47.328 120.913 52.032 120.849 56.896C120.849 61.76 120.785 66.4 120.657 70.816C120.593 75.232 120.497 79.2 120.369 82.72C120.241 86.176 120.081 88.8 119.889 90.592C119.633 92.512 118.801 94.144 117.393 95.488C115.985 96.832 114.257 97.408 112.209 97.216C109.905 97.024 108.241 96.096 107.217 94.432C106.193 92.832 105.713 91.072 105.777 89.152C106.033 86.016 106.225 82.048 106.353 77.248C106.545 72.384 106.673 67.232 106.737 61.792H102.321ZM161.937 43.264C161.617 43.776 161.137 44.352 160.497 44.992C159.921 45.568 159.217 46.08 158.385 46.528C157.553 46.912 156.625 47.168 155.601 47.296C154.577 47.36 153.489 47.168 152.337 46.72C150.737 46.016 149.553 45.184 148.785 44.224C148.081 43.264 147.633 42.272 147.441 41.248C147.249 40.224 147.249 39.264 147.441 38.368C147.697 37.408 147.985 36.672 148.305 36.16C148.817 35.392 149.265 34.592 149.649 33.76C150.097 32.928 150.481 32.128 150.801 31.36C150.929 30.848 150.929 30.368 150.801 29.92C150.737 29.408 150.033 29.152 148.689 29.152H140.625C139.601 29.152 138.705 28.928 137.937 28.48C137.169 28.032 136.529 27.456 136.017 26.752C135.505 26.048 135.121 25.28 134.865 24.448C134.609 23.616 134.481 22.784 134.481 21.952C134.481 20.992 134.641 20.096 134.961 19.264C135.345 18.368 135.825 17.632 136.401 17.056C136.977 16.416 137.617 15.936 138.321 15.616C139.089 15.232 139.857 15.04 140.625 15.04H159.633C160.337 15.04 161.105 15.232 161.937 15.616C162.833 15.936 163.665 16.448 164.433 17.152C165.201 17.856 165.841 18.72 166.353 19.744C166.929 20.768 167.249 21.952 167.313 23.296C167.313 27.136 166.833 30.72 165.873 34.048C164.977 37.312 163.665 40.384 161.937 43.264ZM202.161 41.92C202.033 42.56 201.713 43.232 201.201 43.936C200.753 44.576 200.145 45.184 199.377 45.76C198.609 46.272 197.713 46.656 196.689 46.912C195.665 47.104 194.481 47.104 193.137 46.912C191.793 46.72 190.673 46.304 189.777 45.664C188.945 45.024 188.273 44.32 187.761 43.552C187.249 42.784 186.897 42.016 186.705 41.248C186.577 40.416 186.577 39.68 186.705 39.04C186.833 38.464 186.929 37.824 186.993 37.12C187.121 36.416 187.217 35.712 187.281 35.008C187.409 34.304 187.505 33.632 187.569 32.992C187.697 32.352 187.793 31.808 187.857 31.36C187.921 30.848 187.857 30.368 187.665 29.92C187.537 29.408 186.929 29.152 185.841 29.152H175.857C174.769 29.152 173.841 28.928 173.073 28.48C172.305 28.032 171.665 27.456 171.153 26.752C170.641 26.048 170.257 25.28 170.001 24.448C169.809 23.616 169.713 22.784 169.713 21.952C169.713 19.968 170.321 18.336 171.537 17.056C172.753 15.712 174.193 15.04 175.857 15.04H196.017C196.721 15.04 197.457 15.232 198.225 15.616C199.057 16 199.825 16.544 200.529 17.248C201.297 17.888 201.937 18.688 202.449 19.648C203.025 20.608 203.377 21.696 203.505 22.912C203.889 26.624 203.889 30.112 203.505 33.376C203.121 36.576 202.673 39.424 202.161 41.92ZM136.593 62.368C135.697 62.24 134.801 61.984 133.905 61.6C133.073 61.216 132.305 60.704 131.601 60.064C130.961 59.424 130.449 58.624 130.065 57.664C129.745 56.704 129.649 55.552 129.777 54.208C129.905 53.056 130.257 52.064 130.833 51.232C131.409 50.4 132.113 49.76 132.945 49.312C133.841 48.8 134.769 48.48 135.729 48.352C136.689 48.16 137.585 48.096 138.417 48.16C141.809 48.48 146.001 48.736 150.993 48.928C156.049 49.12 161.361 49.248 166.929 49.312V41.152C166.929 39.552 167.665 38.144 169.137 36.928C170.609 35.648 172.433 35.008 174.609 35.008C176.785 35.008 178.737 35.584 180.465 36.736C182.193 37.824 183.057 39.296 183.057 41.152V49.216C186.897 49.152 190.481 49.056 193.809 48.928C197.201 48.736 200.113 48.48 202.545 48.16C203.441 48.096 204.369 48.128 205.329 48.256C206.353 48.384 207.281 48.704 208.113 49.216C208.945 49.664 209.649 50.336 210.225 51.232C210.801 52.064 211.121 53.152 211.185 54.496C211.249 55.712 211.089 56.8 210.705 57.76C210.321 58.656 209.777 59.424 209.073 60.064C208.433 60.704 207.697 61.216 206.865 61.6C206.033 61.984 205.201 62.24 204.369 62.368C202.449 62.624 199.761 62.848 196.305 63.04C192.849 63.168 188.977 63.296 184.689 63.424C180.401 63.488 175.889 63.552 171.153 63.616C166.417 63.616 161.841 63.584 157.425 63.52C153.073 63.456 149.041 63.328 145.329 63.136C141.681 62.944 138.769 62.688 136.593 62.368ZM189.009 82.048C189.009 81.92 188.913 81.696 188.721 81.376C188.593 81.056 188.177 80.896 187.473 80.896H153.393C152.881 80.896 152.529 81.024 152.337 81.28C152.209 81.472 152.113 81.696 152.049 81.952C151.985 82.208 151.921 82.56 151.857 83.008C151.857 83.456 151.889 83.904 151.953 84.352C152.081 85.184 152.401 85.632 152.913 85.696C153.937 85.888 155.153 86.08 156.561 86.272C157.969 86.464 159.473 86.624 161.073 86.752C162.673 86.88 164.305 86.976 165.969 87.04C167.697 87.104 169.361 87.136 170.961 87.136C174.161 87.136 177.201 87.072 180.081 86.944C182.961 86.752 185.457 86.432 187.569 85.984C188.529 85.792 189.009 85.216 189.009 84.256C189.073 83.552 189.073 82.816 189.009 82.048ZM196.305 98.08C192.593 99.296 188.401 100.064 183.729 100.384C179.121 100.768 174.609 100.992 170.193 101.056C167.953 101.056 165.617 100.992 163.185 100.864C160.753 100.736 158.353 100.544 155.985 100.288C153.681 100.096 151.505 99.808 149.457 99.424C147.409 99.04 145.681 98.56 144.273 97.984C142.865 97.408 141.393 96.416 139.857 95.008C138.321 93.664 137.329 91.936 136.881 89.824C136.625 88.608 136.433 87.328 136.305 85.984C136.241 84.576 136.209 83.2 136.209 81.856C136.273 80.448 136.337 79.104 136.401 77.824C136.529 76.544 136.657 75.424 136.785 74.464C137.105 72.544 137.937 70.88 139.281 69.472C140.689 68 142.321 67.264 144.177 67.264H196.881C198.929 67.264 200.593 68 201.873 69.472C203.217 70.88 204.017 72.544 204.273 74.464C204.593 77.216 204.753 79.744 204.753 82.048C204.817 84.352 204.625 86.944 204.177 89.824C204.049 90.784 203.697 91.712 203.121 92.608C202.609 93.504 201.969 94.304 201.201 95.008C200.497 95.776 199.697 96.416 198.801 96.928C197.969 97.44 197.137 97.824 196.305 98.08Z" fill="#6EC6FF"/>
</svg>
