<svg width="249" height="249" viewBox="0 0 249 249" fill="none" xmlns="http://www.w3.org/2000/svg">
<rect width="249" height="249" fill="white"/>
<path d="M69.328 140.656C69.648 140.592 69.968 140.56 70.288 140.56C70.608 140.496 70.928 140.432 71.248 140.368C72.912 140.112 73.776 139.152 73.84 137.488C73.968 135.76 74.064 133.744 74.128 131.44C74.192 129.072 74.224 126.576 74.224 123.952H69.328V140.656ZM74.128 108.784C74 105.328 73.84 102.256 73.648 99.568C73.52 96.88 73.392 94.992 73.264 93.904C73.2 93.008 73.232 92.112 73.36 91.216C73.552 90.32 73.84 89.52 74.224 88.816C74.672 88.112 75.216 87.536 75.856 87.088C76.56 86.576 77.36 86.288 78.256 86.224C80.176 86.096 81.808 86.512 83.152 87.472C84.56 88.432 85.424 89.84 85.744 91.696C85.872 92.912 86 94.832 86.128 97.456C86.256 100.08 86.352 103.088 86.416 106.48C86.48 109.872 86.512 113.456 86.512 117.232C86.576 121.008 86.576 124.624 86.512 128.08C86.448 131.472 86.352 134.544 86.224 137.296C86.096 140.048 85.904 142.128 85.648 143.536C85.264 145.712 84.592 147.504 83.632 148.912C82.672 150.256 81.552 151.376 80.272 152.272C78.48 153.36 76.144 154.288 73.264 155.056C70.448 155.888 67.12 156.304 63.28 156.304C59.44 156.304 56.112 155.888 53.296 155.056C50.48 154.288 48.208 153.36 46.48 152.272C45.136 151.376 43.984 150.224 43.024 148.816C42.064 147.408 41.392 145.648 41.008 143.536C40.752 142.128 40.56 140.048 40.432 137.296C40.304 134.544 40.208 131.472 40.144 128.08C40.08 124.624 40.048 121.008 40.048 117.232C40.112 113.456 40.176 109.872 40.24 106.48C40.304 103.088 40.4 100.08 40.528 97.456C40.656 94.832 40.784 92.912 40.912 91.696C41.232 89.84 42.064 88.4 43.408 87.376C44.752 86.288 46.224 85.904 47.824 86.224C49.936 86.608 51.408 87.504 52.24 88.912C53.136 90.32 53.52 91.952 53.392 93.808C53.2 94.896 53.04 96.784 52.912 99.472C52.784 102.16 52.656 105.264 52.528 108.784H57.04V92.944C57.04 91.28 57.552 89.872 58.576 88.72C59.6 87.568 61.04 86.992 62.896 86.992C64.624 86.992 66.128 87.504 67.408 88.528C68.688 89.488 69.328 90.96 69.328 92.944V108.784H74.128ZM52.336 123.952C52.336 126.64 52.368 129.2 52.432 131.632C52.56 134 52.688 136.048 52.816 137.776C52.88 138.544 53.072 139.152 53.392 139.6C53.776 139.984 54.416 140.24 55.312 140.368C55.568 140.432 55.824 140.464 56.08 140.464C56.4 140.464 56.72 140.496 57.04 140.56V123.952H52.336ZM105.04 127.792C105.04 130.864 105.008 133.84 104.944 136.72C104.88 139.6 104.784 142.288 104.656 144.784C104.592 147.28 104.496 149.52 104.368 151.504C104.304 153.424 104.208 154.96 104.08 156.112C103.824 158.032 102.992 159.664 101.584 161.008C100.176 162.352 98.448 162.928 96.4 162.736C94.096 162.544 92.432 161.616 91.408 159.952C90.384 158.352 89.904 156.592 89.968 154.672C90.16 152.24 90.32 149.296 90.448 145.84C90.64 142.32 90.768 138.576 90.832 134.608C90.96 130.576 91.024 126.448 91.024 122.224C91.024 117.936 90.992 113.808 90.928 109.84C90.864 105.808 90.736 102.032 90.544 98.512C90.416 94.992 90.224 92.016 89.968 89.584C89.712 87.536 90.16 85.712 91.312 84.112C92.528 82.512 94.128 81.584 96.112 81.328C97.136 81.2 98.096 81.296 98.992 81.616C99.952 81.872 100.784 82.32 101.488 82.96C102.192 83.536 102.768 84.24 103.216 85.072C103.664 85.904 103.952 86.832 104.08 87.856C104.4 90.352 104.624 93.808 104.752 98.224C104.944 102.64 105.072 107.44 105.136 112.624H109.456C109.392 107.952 109.296 103.568 109.168 99.472C109.04 95.376 108.816 91.92 108.496 89.104C108.24 87.056 108.688 85.232 109.84 83.632C111.056 82.032 112.656 81.104 114.64 80.848C115.664 80.72 116.624 80.816 117.52 81.136C118.48 81.392 119.312 81.84 120.016 82.48C120.72 83.056 121.296 83.76 121.744 84.592C122.192 85.424 122.48 86.352 122.608 87.376C122.928 89.552 123.152 92.528 123.28 96.304C123.472 100.08 123.568 104.24 123.568 108.784C123.632 113.328 123.632 118.032 123.568 122.896C123.568 127.76 123.504 132.4 123.376 136.816C123.312 141.232 123.216 145.2 123.088 148.72C122.96 152.176 122.8 154.8 122.608 156.592C122.352 158.512 121.52 160.144 120.112 161.488C118.704 162.832 116.976 163.408 114.928 163.216C112.624 163.024 110.96 162.096 109.936 160.432C108.912 158.832 108.432 157.072 108.496 155.152C108.752 152.016 108.944 148.048 109.072 143.248C109.264 138.384 109.392 133.232 109.456 127.792H105.04Z" fill="#FFA07A"/>
<path d="M164.937 109.264C164.617 109.776 164.137 110.352 163.497 110.992C162.921 111.568 162.217 112.08 161.385 112.528C160.553 112.912 159.625 113.168 158.601 113.296C157.577 113.36 156.489 113.168 155.337 112.72C153.737 112.016 152.553 111.184 151.785 110.224C151.081 109.264 150.633 108.272 150.441 107.248C150.249 106.224 150.249 105.264 150.441 104.368C150.697 103.408 150.985 102.672 151.305 102.16C151.817 101.392 152.265 100.592 152.649 99.76C153.097 98.928 153.481 98.128 153.801 97.36C153.929 96.848 153.929 96.368 153.801 95.92C153.737 95.408 153.033 95.152 151.689 95.152H143.625C142.601 95.152 141.705 94.928 140.937 94.48C140.169 94.032 139.529 93.456 139.017 92.752C138.505 92.048 138.121 91.28 137.865 90.448C137.609 89.616 137.481 88.784 137.481 87.952C137.481 86.992 137.641 86.096 137.961 85.264C138.345 84.368 138.825 83.632 139.401 83.056C139.977 82.416 140.617 81.936 141.321 81.616C142.089 81.232 142.857 81.04 143.625 81.04H162.633C163.337 81.04 164.105 81.232 164.937 81.616C165.833 81.936 166.665 82.448 167.433 83.152C168.201 83.856 168.841 84.72 169.353 85.744C169.929 86.768 170.249 87.952 170.313 89.296C170.313 93.136 169.833 96.72 168.873 100.048C167.977 103.312 166.665 106.384 164.937 109.264ZM205.161 107.92C205.033 108.56 204.713 109.232 204.201 109.936C203.753 110.576 203.145 111.184 202.377 111.76C201.609 112.272 200.713 112.656 199.689 112.912C198.665 113.104 197.481 113.104 196.137 112.912C194.793 112.72 193.673 112.304 192.777 111.664C191.945 111.024 191.273 110.32 190.761 109.552C190.249 108.784 189.897 108.016 189.705 107.248C189.577 106.416 189.577 105.68 189.705 105.04C189.833 104.464 189.929 103.824 189.993 103.12C190.121 102.416 190.217 101.712 190.281 101.008C190.409 100.304 190.505 99.632 190.569 98.992C190.697 98.352 190.793 97.808 190.857 97.36C190.921 96.848 190.857 96.368 190.665 95.92C190.537 95.408 189.929 95.152 188.841 95.152H178.857C177.769 95.152 176.841 94.928 176.073 94.48C175.305 94.032 174.665 93.456 174.153 92.752C173.641 92.048 173.257 91.28 173.001 90.448C172.809 89.616 172.713 88.784 172.713 87.952C172.713 85.968 173.321 84.336 174.537 83.056C175.753 81.712 177.193 81.04 178.857 81.04H199.017C199.721 81.04 200.457 81.232 201.225 81.616C202.057 82 202.825 82.544 203.529 83.248C204.297 83.888 204.937 84.688 205.449 85.648C206.025 86.608 206.377 87.696 206.505 88.912C206.889 92.624 206.889 96.112 206.505 99.376C206.121 102.576 205.673 105.424 205.161 107.92ZM139.593 128.368C138.697 128.24 137.801 127.984 136.905 127.6C136.073 127.216 135.305 126.704 134.601 126.064C133.961 125.424 133.449 124.624 133.065 123.664C132.745 122.704 132.649 121.552 132.777 120.208C132.905 119.056 133.257 118.064 133.833 117.232C134.409 116.4 135.113 115.76 135.945 115.312C136.841 114.8 137.769 114.48 138.729 114.352C139.689 114.16 140.585 114.096 141.417 114.16C144.809 114.48 149.001 114.736 153.993 114.928C159.049 115.12 164.361 115.248 169.929 115.312V107.152C169.929 105.552 170.665 104.144 172.137 102.928C173.609 101.648 175.433 101.008 177.609 101.008C179.785 101.008 181.737 101.584 183.465 102.736C185.193 103.824 186.057 105.296 186.057 107.152V115.216C189.897 115.152 193.481 115.056 196.809 114.928C200.201 114.736 203.113 114.48 205.545 114.16C206.441 114.096 207.369 114.128 208.329 114.256C209.353 114.384 210.281 114.704 211.113 115.216C211.945 115.664 212.649 116.336 213.225 117.232C213.801 118.064 214.121 119.152 214.185 120.496C214.249 121.712 214.089 122.8 213.705 123.76C213.321 124.656 212.777 125.424 212.073 126.064C211.433 126.704 210.697 127.216 209.865 127.6C209.033 127.984 208.201 128.24 207.369 128.368C205.449 128.624 202.761 128.848 199.305 129.04C195.849 129.168 191.977 129.296 187.689 129.424C183.401 129.488 178.889 129.552 174.153 129.616C169.417 129.616 164.841 129.584 160.425 129.52C156.073 129.456 152.041 129.328 148.329 129.136C144.681 128.944 141.769 128.688 139.593 128.368ZM192.009 148.048C192.009 147.92 191.913 147.696 191.721 147.376C191.593 147.056 191.177 146.896 190.473 146.896H156.393C155.881 146.896 155.529 147.024 155.337 147.28C155.209 147.472 155.113 147.696 155.049 147.952C154.985 148.208 154.921 148.56 154.857 149.008C154.857 149.456 154.889 149.904 154.953 150.352C155.081 151.184 155.401 151.632 155.913 151.696C156.937 151.888 158.153 152.08 159.561 152.272C160.969 152.464 162.473 152.624 164.073 152.752C165.673 152.88 167.305 152.976 168.969 153.04C170.697 153.104 172.361 153.136 173.961 153.136C177.161 153.136 180.201 153.072 183.081 152.944C185.961 152.752 188.457 152.432 190.569 151.984C191.529 151.792 192.009 151.216 192.009 150.256C192.073 149.552 192.073 148.816 192.009 148.048ZM199.305 164.08C195.593 165.296 191.401 166.064 186.729 166.384C182.121 166.768 177.609 166.992 173.193 167.056C170.953 167.056 168.617 166.992 166.185 166.864C163.753 166.736 161.353 166.544 158.985 166.288C156.681 166.096 154.505 165.808 152.457 165.424C150.409 165.04 148.681 164.56 147.273 163.984C145.865 163.408 144.393 162.416 142.857 161.008C141.321 159.664 140.329 157.936 139.881 155.824C139.625 154.608 139.433 153.328 139.305 151.984C139.241 150.576 139.209 149.2 139.209 147.856C139.273 146.448 139.337 145.104 139.401 143.824C139.529 142.544 139.657 141.424 139.785 140.464C140.105 138.544 140.937 136.88 142.281 135.472C143.689 134 145.321 133.264 147.177 133.264H199.881C201.929 133.264 203.593 134 204.873 135.472C206.217 136.88 207.017 138.544 207.273 140.464C207.593 143.216 207.753 145.744 207.753 148.048C207.817 150.352 207.625 152.944 207.177 155.824C207.049 156.784 206.697 157.712 206.121 158.608C205.609 159.504 204.969 160.304 204.201 161.008C203.497 161.776 202.697 162.416 201.801 162.928C200.969 163.44 200.137 163.824 199.305 164.08Z" fill="#FFA07A"/>
<path d="M66.6093 140.656C66.9293 140.592 67.2493 140.56 67.5693 140.56C67.8893 140.496 68.2093 140.432 68.5293 140.368C70.1933 140.112 71.0573 139.152 71.1213 137.488C71.2493 135.76 71.3453 133.744 71.4093 131.44C71.4733 129.072 71.5053 126.576 71.5053 123.952H66.6093V140.656ZM71.4093 108.784C71.2813 105.328 71.1213 102.256 70.9293 99.568C70.8013 96.88 70.6733 94.992 70.5453 93.904C70.4813 93.008 70.5133 92.112 70.6413 91.216C70.8333 90.32 71.1213 89.52 71.5053 88.816C71.9533 88.112 72.4973 87.536 73.1373 87.088C73.8413 86.576 74.6413 86.288 75.5373 86.224C77.4573 86.096 79.0893 86.512 80.4333 87.472C81.8413 88.432 82.7053 89.84 83.0253 91.696C83.1533 92.912 83.2813 94.832 83.4093 97.456C83.5373 100.08 83.6333 103.088 83.6973 106.48C83.7613 109.872 83.7933 113.456 83.7933 117.232C83.8573 121.008 83.8573 124.624 83.7933 128.08C83.7293 131.472 83.6333 134.544 83.5053 137.296C83.3773 140.048 83.1853 142.128 82.9293 143.536C82.5453 145.712 81.8733 147.504 80.9133 148.912C79.9533 150.256 78.8333 151.376 77.5533 152.272C75.7613 153.36 73.4253 154.288 70.5453 155.056C67.7293 155.888 64.4013 156.304 60.5613 156.304C56.7213 156.304 53.3933 155.888 50.5773 155.056C47.7613 154.288 45.4893 153.36 43.7613 152.272C42.4173 151.376 41.2653 150.224 40.3053 148.816C39.3453 147.408 38.6733 145.648 38.2893 143.536C38.0333 142.128 37.8413 140.048 37.7133 137.296C37.5853 134.544 37.4893 131.472 37.4253 128.08C37.3613 124.624 37.3293 121.008 37.3293 117.232C37.3933 113.456 37.4573 109.872 37.5213 106.48C37.5853 103.088 37.6813 100.08 37.8093 97.456C37.9373 94.832 38.0653 92.912 38.1933 91.696C38.5133 89.84 39.3453 88.4 40.6893 87.376C42.0333 86.288 43.5053 85.904 45.1053 86.224C47.2173 86.608 48.6893 87.504 49.5213 88.912C50.4173 90.32 50.8013 91.952 50.6733 93.808C50.4813 94.896 50.3213 96.784 50.1933 99.472C50.0653 102.16 49.9373 105.264 49.8093 108.784H54.3213V92.944C54.3213 91.28 54.8333 89.872 55.8573 88.72C56.8813 87.568 58.3213 86.992 60.1773 86.992C61.9053 86.992 63.4093 87.504 64.6893 88.528C65.9693 89.488 66.6093 90.96 66.6093 92.944V108.784H71.4093ZM49.6173 123.952C49.6173 126.64 49.6493 129.2 49.7133 131.632C49.8413 134 49.9693 136.048 50.0973 137.776C50.1613 138.544 50.3533 139.152 50.6733 139.6C51.0573 139.984 51.6973 140.24 52.5933 140.368C52.8493 140.432 53.1053 140.464 53.3613 140.464C53.6813 140.464 54.0013 140.496 54.3213 140.56V123.952H49.6173ZM102.321 127.792C102.321 130.864 102.289 133.84 102.225 136.72C102.161 139.6 102.065 142.288 101.937 144.784C101.873 147.28 101.777 149.52 101.649 151.504C101.585 153.424 101.489 154.96 101.361 156.112C101.105 158.032 100.273 159.664 98.8653 161.008C97.4573 162.352 95.7293 162.928 93.6813 162.736C91.3773 162.544 89.7133 161.616 88.6893 159.952C87.6653 158.352 87.1853 156.592 87.2493 154.672C87.4413 152.24 87.6013 149.296 87.7292 145.84C87.9213 142.32 88.0493 138.576 88.1133 134.608C88.2413 130.576 88.3053 126.448 88.3053 122.224C88.3053 117.936 88.2733 113.808 88.2093 109.84C88.1453 105.808 88.0173 102.032 87.8253 98.512C87.6973 94.992 87.5053 92.016 87.2493 89.584C86.9933 87.536 87.4413 85.712 88.5933 84.112C89.8093 82.512 91.4093 81.584 93.3933 81.328C94.4173 81.2 95.3773 81.296 96.2733 81.616C97.2333 81.872 98.0653 82.32 98.7693 82.96C99.4733 83.536 100.049 84.24 100.497 85.072C100.945 85.904 101.233 86.832 101.361 87.856C101.681 90.352 101.905 93.808 102.033 98.224C102.225 102.64 102.353 107.44 102.417 112.624H106.737C106.673 107.952 106.577 103.568 106.449 99.472C106.321 95.376 106.097 91.92 105.777 89.104C105.521 87.056 105.969 85.232 107.121 83.632C108.337 82.032 109.937 81.104 111.921 80.848C112.945 80.72 113.905 80.816 114.801 81.136C115.761 81.392 116.593 81.84 117.297 82.48C118.001 83.056 118.577 83.76 119.025 84.592C119.473 85.424 119.761 86.352 119.889 87.376C120.209 89.552 120.433 92.528 120.561 96.304C120.753 100.08 120.849 104.24 120.849 108.784C120.913 113.328 120.913 118.032 120.849 122.896C120.849 127.76 120.785 132.4 120.657 136.816C120.593 141.232 120.497 145.2 120.369 148.72C120.241 152.176 120.081 154.8 119.889 156.592C119.633 158.512 118.801 160.144 117.393 161.488C115.985 162.832 114.257 163.408 112.209 163.216C109.905 163.024 108.241 162.096 107.217 160.432C106.193 158.832 105.713 157.072 105.777 155.152C106.033 152.016 106.225 148.048 106.353 143.248C106.545 138.384 106.673 133.232 106.737 127.792H102.321ZM161.937 109.264C161.617 109.776 161.137 110.352 160.497 110.992C159.921 111.568 159.217 112.08 158.385 112.528C157.553 112.912 156.625 113.168 155.601 113.296C154.577 113.36 153.489 113.168 152.337 112.72C150.737 112.016 149.553 111.184 148.785 110.224C148.081 109.264 147.633 108.272 147.441 107.248C147.249 106.224 147.249 105.264 147.441 104.368C147.697 103.408 147.985 102.672 148.305 102.16C148.817 101.392 149.265 100.592 149.649 99.76C150.097 98.928 150.481 98.128 150.801 97.36C150.929 96.848 150.929 96.368 150.801 95.92C150.737 95.408 150.033 95.152 148.689 95.152H140.625C139.601 95.152 138.705 94.928 137.937 94.48C137.169 94.032 136.529 93.456 136.017 92.752C135.505 92.048 135.121 91.28 134.865 90.448C134.609 89.616 134.481 88.784 134.481 87.952C134.481 86.992 134.641 86.096 134.961 85.264C135.345 84.368 135.825 83.632 136.401 83.056C136.977 82.416 137.617 81.936 138.321 81.616C139.089 81.232 139.857 81.04 140.625 81.04H159.633C160.337 81.04 161.105 81.232 161.937 81.616C162.833 81.936 163.665 82.448 164.433 83.152C165.201 83.856 165.841 84.72 166.353 85.744C166.929 86.768 167.249 87.952 167.313 89.296C167.313 93.136 166.833 96.72 165.873 100.048C164.977 103.312 163.665 106.384 161.937 109.264ZM202.161 107.92C202.033 108.56 201.713 109.232 201.201 109.936C200.753 110.576 200.145 111.184 199.377 111.76C198.609 112.272 197.713 112.656 196.689 112.912C195.665 113.104 194.481 113.104 193.137 112.912C191.793 112.72 190.673 112.304 189.777 111.664C188.945 111.024 188.273 110.32 187.761 109.552C187.249 108.784 186.897 108.016 186.705 107.248C186.577 106.416 186.577 105.68 186.705 105.04C186.833 104.464 186.929 103.824 186.993 103.12C187.121 102.416 187.217 101.712 187.281 101.008C187.409 100.304 187.505 99.632 187.569 98.992C187.697 98.352 187.793 97.808 187.857 97.36C187.921 96.848 187.857 96.368 187.665 95.92C187.537 95.408 186.929 95.152 185.841 95.152H175.857C174.769 95.152 173.841 94.928 173.073 94.48C172.305 94.032 171.665 93.456 171.153 92.752C170.641 92.048 170.257 91.28 170.001 90.448C169.809 89.616 169.713 88.784 169.713 87.952C169.713 85.968 170.321 84.336 171.537 83.056C172.753 81.712 174.193 81.04 175.857 81.04H196.017C196.721 81.04 197.457 81.232 198.225 81.616C199.057 82 199.825 82.544 200.529 83.248C201.297 83.888 201.937 84.688 202.449 85.648C203.025 86.608 203.377 87.696 203.505 88.912C203.889 92.624 203.889 96.112 203.505 99.376C203.121 102.576 202.673 105.424 202.161 107.92ZM136.593 128.368C135.697 128.24 134.801 127.984 133.905 127.6C133.073 127.216 132.305 126.704 131.601 126.064C130.961 125.424 130.449 124.624 130.065 123.664C129.745 122.704 129.649 121.552 129.777 120.208C129.905 119.056 130.257 118.064 130.833 117.232C131.409 116.4 132.113 115.76 132.945 115.312C133.841 114.8 134.769 114.48 135.729 114.352C136.689 114.16 137.585 114.096 138.417 114.16C141.809 114.48 146.001 114.736 150.993 114.928C156.049 115.12 161.361 115.248 166.929 115.312V107.152C166.929 105.552 167.665 104.144 169.137 102.928C170.609 101.648 172.433 101.008 174.609 101.008C176.785 101.008 178.737 101.584 180.465 102.736C182.193 103.824 183.057 105.296 183.057 107.152V115.216C186.897 115.152 190.481 115.056 193.809 114.928C197.201 114.736 200.113 114.48 202.545 114.16C203.441 114.096 204.369 114.128 205.329 114.256C206.353 114.384 207.281 114.704 208.113 115.216C208.945 115.664 209.649 116.336 210.225 117.232C210.801 118.064 211.121 119.152 211.185 120.496C211.249 121.712 211.089 122.8 210.705 123.76C210.321 124.656 209.777 125.424 209.073 126.064C208.433 126.704 207.697 127.216 206.865 127.6C206.033 127.984 205.201 128.24 204.369 128.368C202.449 128.624 199.761 128.848 196.305 129.04C192.849 129.168 188.977 129.296 184.689 129.424C180.401 129.488 175.889 129.552 171.153 129.616C166.417 129.616 161.841 129.584 157.425 129.52C153.073 129.456 149.041 129.328 145.329 129.136C141.681 128.944 138.769 128.688 136.593 128.368ZM189.009 148.048C189.009 147.92 188.913 147.696 188.721 147.376C188.593 147.056 188.177 146.896 187.473 146.896H153.393C152.881 146.896 152.529 147.024 152.337 147.28C152.209 147.472 152.113 147.696 152.049 147.952C151.985 148.208 151.921 148.56 151.857 149.008C151.857 149.456 151.889 149.904 151.953 150.352C152.081 151.184 152.401 151.632 152.913 151.696C153.937 151.888 155.153 152.08 156.561 152.272C157.969 152.464 159.473 152.624 161.073 152.752C162.673 152.88 164.305 152.976 165.969 153.04C167.697 153.104 169.361 153.136 170.961 153.136C174.161 153.136 177.201 153.072 180.081 152.944C182.961 152.752 185.457 152.432 187.569 151.984C188.529 151.792 189.009 151.216 189.009 150.256C189.073 149.552 189.073 148.816 189.009 148.048ZM196.305 164.08C192.593 165.296 188.401 166.064 183.729 166.384C179.121 166.768 174.609 166.992 170.193 167.056C167.953 167.056 165.617 166.992 163.185 166.864C160.753 166.736 158.353 166.544 155.985 166.288C153.681 166.096 151.505 165.808 149.457 165.424C147.409 165.04 145.681 164.56 144.273 163.984C142.865 163.408 141.393 162.416 139.857 161.008C138.321 159.664 137.329 157.936 136.881 155.824C136.625 154.608 136.433 153.328 136.305 151.984C136.241 150.576 136.209 149.2 136.209 147.856C136.273 146.448 136.337 145.104 136.401 143.824C136.529 142.544 136.657 141.424 136.785 140.464C137.105 138.544 137.937 136.88 139.281 135.472C140.689 134 142.321 133.264 144.177 133.264H196.881C198.929 133.264 200.593 134 201.873 135.472C203.217 136.88 204.017 138.544 204.273 140.464C204.593 143.216 204.753 145.744 204.753 148.048C204.817 150.352 204.625 152.944 204.177 155.824C204.049 156.784 203.697 157.712 203.121 158.608C202.609 159.504 201.969 160.304 201.201 161.008C200.497 161.776 199.697 162.416 198.801 162.928C197.969 163.44 197.137 163.824 196.305 164.08Z" fill="#6EC6FF"/>
</svg>
